<svg width="161" height="40" viewBox="0 0 161 40" fill="none" xmlns="http://www.w3.org/2000/svg">
<path fill-rule="evenodd" clip-rule="evenodd" d="M25.5557 11.6853C23.9112 10.5865 21.9778 10 20 10V0C23.9556 0 27.8224 1.17298 31.1114 3.37061C34.4004 5.56823 36.9638 8.69181 38.4776 12.3463C39.9913 16.0008 40.3874 20.0222 39.6157 23.9018C38.844 27.7814 36.9392 31.3451 34.1421 34.1421C31.3451 36.9392 27.7814 38.844 23.9018 39.6157C20.0222 40.3874 16.0008 39.9913 12.3463 38.4776C8.6918 36.9638 5.56823 34.4004 3.37061 31.1114C1.17298 27.8224 0 23.9556 0 20H10C10 21.9778 10.5865 23.9112 11.6853 25.5557C12.7841 27.2002 14.3459 28.4819 16.1732 29.2388C18.0004 29.9957 20.0111 30.1937 21.9509 29.8078C23.8907 29.422 25.6725 28.4696 27.0711 27.0711C28.4696 25.6725 29.422 23.8907 29.8078 21.9509C30.1937 20.0111 29.9957 18.0004 29.2388 16.1732C28.4819 14.3459 27.2002 12.7841 25.5557 11.6853Z" fill="#E65810"/>
<path fill-rule="evenodd" clip-rule="evenodd" d="M9.99999 5.28493e-06C9.99999 1.31322 9.74134 2.61358 9.23879 3.82684C8.73624 5.04009 7.99965 6.14248 7.07106 7.07107C6.14248 7.99966 5.04009 8.73625 3.82683 9.2388C2.61357 9.74134 1.31321 10 4.3711e-07 10L0 20C2.62643 20 5.22715 19.4827 7.65367 18.4776C10.0802 17.4725 12.285 15.9993 14.1421 14.1421C15.9993 12.285 17.4725 10.0802 18.4776 7.65367C19.4827 5.22715 20 2.62643 20 0L9.99999 5.28493e-06Z" fill="#E65810"/>
<path d="M52.224 31.224C51.008 31.224 50.08 30.872 49.44 30.168C48.8 29.4427 48.48 28.152 48.48 26.296C48.48 25.5067 48.5653 24.568 48.736 23.48C48.928 22.3707 49.184 21.1973 49.504 19.96C49.824 18.7227 50.1867 17.4853 50.592 16.248C51.0187 14.9893 51.4773 13.8267 51.968 12.76C52.6293 11.3307 53.3227 10.232 54.048 9.464C54.7733 8.67467 55.5413 8.13067 56.352 7.832C57.1627 7.512 58.016 7.352 58.912 7.352C60.2987 7.352 61.5573 7.736 62.688 8.504C63.84 9.272 64.8107 10.6373 65.6 12.6C66.048 13.7093 66.464 14.9893 66.848 16.44C67.2533 17.8693 67.5733 19.384 67.808 20.984C68.0427 22.584 68.16 24.184 68.16 25.784C68.16 27.6613 67.7653 29.0373 66.976 29.912C66.1867 30.7867 65.0773 31.224 63.648 31.224C62.4533 31.224 61.504 30.904 60.8 30.264C60.096 29.624 59.6693 28.5573 59.52 27.064C59.4347 26.104 59.392 25.112 59.392 24.088C59.392 23.064 59.4347 22.072 59.52 21.112L61.536 23.512C61.0027 23.6827 60.3307 23.7893 59.52 23.832C58.7093 23.8747 57.8667 23.8533 56.992 23.768C56.1387 23.6827 55.3387 23.5227 54.592 23.288L57.408 21.176C57.4293 22.2213 57.376 23.2453 57.248 24.248C57.12 25.2507 56.9707 26.1573 56.8 26.968C56.672 27.9067 56.4267 28.696 56.064 29.336C55.7013 29.9547 55.2 30.424 54.56 30.744C53.9413 31.064 53.1627 31.224 52.224 31.224ZM58.72 18.872C59.5947 18.872 60.2773 18.6587 60.768 18.232C61.28 17.784 61.536 17.2187 61.536 16.536C61.536 16.2373 61.472 15.928 61.344 15.608C61.216 15.288 61.0347 15 60.8 14.744C60.5653 14.4667 60.2773 14.2427 59.936 14.072C59.5947 13.9013 59.2107 13.816 58.784 13.816C58.3573 13.816 57.9733 13.912 57.632 14.104C57.2907 14.2747 56.992 14.5093 56.736 14.808C56.5013 15.0853 56.3093 15.4053 56.16 15.768C56.032 16.1093 55.968 16.4507 55.968 16.792C55.968 17.3893 56.2133 17.8907 56.704 18.296C57.216 18.68 57.888 18.872 58.72 18.872ZM72.497 10.872C73.6703 10.872 74.5557 11.192 75.153 11.832C75.7717 12.4507 76.2303 13.432 76.529 14.776C76.721 15.5227 76.9343 16.472 77.169 17.624C77.425 18.776 77.6703 19.9813 77.905 21.24C78.1397 22.4773 78.3317 23.608 78.481 24.632H78.609C78.801 23.5867 78.993 22.488 79.185 21.336C79.377 20.184 79.5477 19.096 79.697 18.072C79.8463 17.0267 79.9637 16.1733 80.049 15.512C80.1983 14.04 80.5183 12.9947 81.009 12.376C81.521 11.736 82.2997 11.416 83.345 11.416C84.5823 11.416 85.5423 11.7893 86.225 12.536C86.929 13.2827 87.281 14.456 87.281 16.056C87.281 17.0587 87.185 18.1253 86.993 19.256C86.8223 20.3653 86.5663 21.464 86.225 22.552C85.905 23.64 85.5317 24.6427 85.105 25.56C84.5503 26.7333 83.921 27.7467 83.217 28.6C82.5343 29.4533 81.7557 30.104 80.881 30.552C80.0277 31 79.0677 31.224 78.001 31.224C76.7637 31.224 75.6437 30.8827 74.641 30.2C73.6597 29.496 72.7317 28.3333 71.857 26.712C71.217 25.5173 70.6837 24.2693 70.257 22.968C69.8303 21.6667 69.4997 20.3867 69.265 19.128C69.0517 17.848 68.945 16.6853 68.945 15.64C68.945 14.0613 69.2223 12.8773 69.777 12.088C70.3317 11.2773 71.2383 10.872 72.497 10.872ZM103.594 31.32C102.356 31.32 101.535 31.0427 101.13 30.488C100.746 29.912 100.564 29.0053 100.586 27.768L101.13 27.928C99.9778 30.2533 97.7698 31.416 94.5058 31.416C93.0124 31.416 91.7751 31.16 90.7938 30.648C89.8338 30.1147 89.1084 29.4213 88.6178 28.568C88.1484 27.7147 87.9138 26.7653 87.9138 25.72C87.9138 23.9493 88.5644 22.552 89.8658 21.528C91.1884 20.4827 92.9378 19.96 95.1138 19.96C96.4364 19.96 97.5991 20.1627 98.6018 20.568C99.6044 20.9733 100.447 21.5387 101.13 22.264L100.106 22.2C100.106 20.536 99.7964 19.352 99.1778 18.648C98.5591 17.944 97.6524 17.592 96.4578 17.592C95.9458 17.592 95.3911 17.6773 94.7938 17.848C94.2178 17.9973 93.6204 18.1573 93.0018 18.328C92.3831 18.4773 91.7538 18.552 91.1138 18.552C90.2604 18.552 89.5884 18.328 89.0978 17.88C88.6284 17.4107 88.3938 16.8133 88.3938 16.088C88.3938 15.1067 88.8098 14.232 89.6418 13.464C90.4738 12.696 91.5724 12.088 92.9378 11.64C94.3244 11.192 95.8178 10.968 97.4178 10.968C99.5084 10.968 101.322 11.3627 102.858 12.152C104.394 12.92 105.471 14.1147 106.09 15.736C106.559 16.9093 106.89 18.232 107.082 19.704C107.295 21.176 107.402 22.744 107.402 24.408C107.402 26.2213 107.274 27.6293 107.018 28.632C106.762 29.6347 106.346 30.3387 105.77 30.744C105.215 31.128 104.49 31.32 103.594 31.32ZM97.3218 26.648C97.7484 26.648 98.1751 26.584 98.6018 26.456C99.0498 26.3067 99.4231 26.104 99.7218 25.848C100.02 25.5707 100.17 25.24 100.17 24.856C100.17 24.472 100.052 24.1627 99.8178 23.928C99.5831 23.6933 99.2631 23.5227 98.8578 23.416C98.4738 23.3093 98.0578 23.256 97.6098 23.256C96.7991 23.256 96.1484 23.4267 95.6578 23.768C95.1671 24.1093 94.9218 24.536 94.9218 25.048C94.9218 25.5173 95.1351 25.9013 95.5618 26.2C96.0098 26.4987 96.5964 26.648 97.3218 26.648ZM113.175 11.736H112.855C112.748 10.7973 112.78 9.912 112.951 9.08C113.121 8.22667 113.484 7.544 114.039 7.032C114.593 6.49867 115.393 6.232 116.439 6.232C117.505 6.232 118.284 6.47733 118.775 6.968C119.265 7.45867 119.511 8.14133 119.511 9.016C119.511 10.1253 119.255 11.0747 118.743 11.864L118.487 11.8C119.233 11.3947 120.055 11.192 120.951 11.192C122.06 11.192 122.945 11.4587 123.607 11.992C124.289 12.504 124.631 13.3893 124.631 14.648C124.631 15.8213 124.247 16.7173 123.479 17.336C122.711 17.9333 121.751 18.232 120.599 18.232C120.193 18.232 119.756 18.2107 119.287 18.168C118.839 18.104 118.401 18.008 117.975 17.88L118.135 17.528C118.412 18.168 118.679 18.8933 118.935 19.704C119.191 20.4933 119.415 21.3253 119.607 22.2C119.82 23.0533 119.98 23.896 120.087 24.728C120.215 25.5387 120.279 26.264 120.279 26.904C120.279 28.2693 119.937 29.3467 119.255 30.136C118.593 30.9253 117.569 31.32 116.183 31.32C115.329 31.32 114.615 31.1707 114.039 30.872C113.463 30.5733 113.004 30.1573 112.663 29.624C112.321 29.0907 112.076 28.4613 111.927 27.736C111.777 26.9893 111.703 26.1893 111.703 25.336C111.703 24.6107 111.756 23.8 111.863 22.904C111.991 21.9867 112.172 21.0373 112.407 20.056C112.641 19.0747 112.919 18.136 113.239 17.24L113.559 18.04C112.876 18.5947 112.012 18.872 110.967 18.872C109.793 18.872 108.876 18.584 108.215 18.008C107.553 17.4107 107.223 16.504 107.223 15.288C107.223 14.0293 107.575 13.0587 108.279 12.376C109.004 11.6933 109.975 11.352 111.191 11.352C111.575 11.352 111.937 11.3947 112.279 11.48C112.62 11.544 112.919 11.6293 113.175 11.736ZM140.781 31.32C139.544 31.32 138.723 31.0427 138.317 30.488C137.933 29.912 137.752 29.0053 137.773 27.768L138.317 27.928C137.165 30.2533 134.957 31.416 131.693 31.416C130.2 31.416 128.963 31.16 127.981 30.648C127.021 30.1147 126.296 29.4213 125.805 28.568C125.336 27.7147 125.101 26.7653 125.101 25.72C125.101 23.9493 125.752 22.552 127.053 21.528C128.376 20.4827 130.125 19.96 132.301 19.96C133.624 19.96 134.787 20.1627 135.789 20.568C136.792 20.9733 137.635 21.5387 138.317 22.264L137.293 22.2C137.293 20.536 136.984 19.352 136.365 18.648C135.747 17.944 134.84 17.592 133.645 17.592C133.133 17.592 132.579 17.6773 131.981 17.848C131.405 17.9973 130.808 18.1573 130.189 18.328C129.571 18.4773 128.941 18.552 128.301 18.552C127.448 18.552 126.776 18.328 126.285 17.88C125.816 17.4107 125.581 16.8133 125.581 16.088C125.581 15.1067 125.997 14.232 126.829 13.464C127.661 12.696 128.76 12.088 130.125 11.64C131.512 11.192 133.005 10.968 134.605 10.968C136.696 10.968 138.509 11.3627 140.045 12.152C141.581 12.92 142.659 14.1147 143.277 15.736C143.747 16.9093 144.077 18.232 144.269 19.704C144.483 21.176 144.589 22.744 144.589 24.408C144.589 26.2213 144.461 27.6293 144.205 28.632C143.949 29.6347 143.533 30.3387 142.957 30.744C142.403 31.128 141.677 31.32 140.781 31.32ZM134.509 26.648C134.936 26.648 135.363 26.584 135.789 26.456C136.237 26.3067 136.611 26.104 136.909 25.848C137.208 25.5707 137.357 25.24 137.357 24.856C137.357 24.472 137.24 24.1627 137.005 23.928C136.771 23.6933 136.451 23.5227 136.045 23.416C135.661 23.3093 135.245 23.256 134.797 23.256C133.987 23.256 133.336 23.4267 132.845 23.768C132.355 24.1093 132.109 24.536 132.109 25.048C132.109 25.5173 132.323 25.9013 132.749 26.2C133.197 26.4987 133.784 26.648 134.509 26.648ZM145.859 17.784C145.859 15.3093 146.168 13.528 146.787 12.44C147.405 11.3307 148.269 10.776 149.379 10.776C150.125 10.776 150.723 11.0107 151.171 11.48C151.619 11.928 151.939 12.4933 152.131 13.176C152.344 13.8373 152.451 14.5093 152.451 15.192L152.291 15.128C152.653 13.976 153.197 12.984 153.923 12.152C154.648 11.32 155.533 10.904 156.579 10.904C157.965 10.904 158.989 11.448 159.651 12.536C160.312 13.624 160.643 14.9893 160.643 16.632C160.643 18.7867 160.301 20.3013 159.619 21.176C158.957 22.0293 158.072 22.456 156.963 22.456C156.109 22.456 155.48 22.2213 155.075 21.752C154.691 21.2613 154.531 20.5253 154.595 19.544C154.637 18.8187 154.605 18.328 154.499 18.072C154.413 17.7947 154.275 17.656 154.083 17.656C153.805 17.656 153.603 17.816 153.475 18.136C153.347 18.4347 153.283 18.8613 153.283 19.416C153.283 19.8427 153.336 20.376 153.443 21.016C153.549 21.656 153.667 22.36 153.795 23.128C153.923 23.8747 154.04 24.6213 154.147 25.368C154.253 26.1147 154.307 26.7973 154.307 27.416C154.307 28.7387 153.987 29.6773 153.347 30.232C152.707 30.7867 151.811 31.064 150.659 31.064C149.571 31.064 148.675 30.7867 147.971 30.232C147.288 29.6773 146.829 28.7707 146.595 27.512C146.467 26.744 146.339 25.784 146.211 24.632C146.104 23.48 146.019 22.296 145.955 21.08C145.891 19.8427 145.859 18.744 145.859 17.784Z" fill="#E6580E"/>
</svg>
